<mxfile host="Electron" modified="2024-05-01T17:45:16.038Z" agent="Mozilla/5.0 (X11; Linux x86_64) AppleWebKit/537.36 (KHTML, like Gecko) draw.io/21.6.5 Chrome/114.0.5735.243 Electron/25.3.1 Safari/537.36" etag="Ix583IrK_rqKvkVQZ6BB" version="21.6.5" type="device">
  <diagram name="Page-1" id="SilH1e4Lqn1S1eZ9dJy-">
    <mxGraphModel dx="1546" dy="1582" grid="1" gridSize="10" guides="1" tooltips="1" connect="1" arrows="1" fold="1" page="0" pageScale="1" pageWidth="827" pageHeight="1169" math="0" shadow="0">
      <root>
        <mxCell id="0" />
        <mxCell id="1" parent="0" />
        <mxCell id="zl4CMRfvYaWZLNP0mIhS-1" value="" style="rounded=0;whiteSpace=wrap;html=1;" parent="1" vertex="1">
          <mxGeometry y="200" width="40" height="40" as="geometry" />
        </mxCell>
        <mxCell id="zl4CMRfvYaWZLNP0mIhS-4" value="BYTECODE_LVAR" style="text;html=1;strokeColor=none;fillColor=none;align=left;verticalAlign=middle;whiteSpace=wrap;rounded=0;fontStyle=1;fontFamily=Courier New;" parent="1" vertex="1">
          <mxGeometry x="50" y="200" width="140" height="40" as="geometry" />
        </mxCell>
        <mxCell id="zl4CMRfvYaWZLNP0mIhS-5" value="" style="rounded=0;whiteSpace=wrap;html=1;" parent="1" vertex="1">
          <mxGeometry y="240" width="40" height="40" as="geometry" />
        </mxCell>
        <mxCell id="zl4CMRfvYaWZLNP0mIhS-6" value="" style="rounded=0;whiteSpace=wrap;html=1;fillColor=#e1d5e7;strokeColor=#9673a6;" parent="1" vertex="1">
          <mxGeometry x="330" y="120" width="20" height="40" as="geometry" />
        </mxCell>
        <mxCell id="zl4CMRfvYaWZLNP0mIhS-9" value="" style="rounded=0;whiteSpace=wrap;html=1;fillColor=#e1d5e7;strokeColor=#9673a6;" parent="1" vertex="1">
          <mxGeometry x="330" y="160" width="20" height="40" as="geometry" />
        </mxCell>
        <mxCell id="zl4CMRfvYaWZLNP0mIhS-10" value="" style="rounded=0;whiteSpace=wrap;html=1;fillColor=#e1d5e7;strokeColor=#9673a6;" parent="1" vertex="1">
          <mxGeometry x="330" y="200" width="20" height="40" as="geometry" />
        </mxCell>
        <mxCell id="zl4CMRfvYaWZLNP0mIhS-11" value="" style="rounded=0;whiteSpace=wrap;html=1;fillColor=#f8cecc;strokeColor=#b85450;" parent="1" vertex="1">
          <mxGeometry x="330" y="240" width="20" height="40" as="geometry" />
        </mxCell>
        <mxCell id="AWAYhMum-Byg9k5m1UXS-80" style="edgeStyle=orthogonalEdgeStyle;curved=1;rounded=0;orthogonalLoop=1;jettySize=auto;html=1;entryX=0.5;entryY=0;entryDx=0;entryDy=0;" edge="1" parent="1" source="zl4CMRfvYaWZLNP0mIhS-12" target="AWAYhMum-Byg9k5m1UXS-74">
          <mxGeometry relative="1" as="geometry" />
        </mxCell>
        <mxCell id="zl4CMRfvYaWZLNP0mIhS-12" value="" style="rounded=0;whiteSpace=wrap;html=1;fillColor=#f8cecc;strokeColor=#b85450;" parent="1" vertex="1">
          <mxGeometry x="330" y="280" width="20" height="40" as="geometry" />
        </mxCell>
        <mxCell id="zl4CMRfvYaWZLNP0mIhS-13" value="" style="rounded=0;whiteSpace=wrap;html=1;" parent="1" vertex="1">
          <mxGeometry x="330" y="320" width="20" height="40" as="geometry" />
        </mxCell>
        <mxCell id="AWAYhMum-Byg9k5m1UXS-1" value="BYTECODE_NS_INSTALL" style="text;html=1;strokeColor=none;fillColor=none;align=left;verticalAlign=middle;whiteSpace=wrap;rounded=0;fontStyle=1;fontFamily=Courier New;" vertex="1" parent="1">
          <mxGeometry x="50" y="240" width="150" height="40" as="geometry" />
        </mxCell>
        <mxCell id="AWAYhMum-Byg9k5m1UXS-3" value="" style="rounded=0;whiteSpace=wrap;html=1;" vertex="1" parent="1">
          <mxGeometry y="280" width="40" height="40" as="geometry" />
        </mxCell>
        <mxCell id="AWAYhMum-Byg9k5m1UXS-4" value="fn-expr" style="text;html=1;strokeColor=none;fillColor=none;align=left;verticalAlign=middle;whiteSpace=wrap;rounded=0;fontStyle=1;fontFamily=Courier New;" vertex="1" parent="1">
          <mxGeometry x="50" y="280" width="80" height="40" as="geometry" />
        </mxCell>
        <mxCell id="AWAYhMum-Byg9k5m1UXS-8" value="" style="rounded=0;whiteSpace=wrap;html=1;" vertex="1" parent="1">
          <mxGeometry y="160" width="40" height="40" as="geometry" />
        </mxCell>
        <mxCell id="AWAYhMum-Byg9k5m1UXS-9" value="..." style="text;html=1;strokeColor=none;fillColor=none;align=left;verticalAlign=middle;whiteSpace=wrap;rounded=0;fontStyle=1;fontFamily=Courier New;" vertex="1" parent="1">
          <mxGeometry x="50" y="160" width="80" height="40" as="geometry" />
        </mxCell>
        <mxCell id="AWAYhMum-Byg9k5m1UXS-10" value="args" style="text;html=1;strokeColor=none;fillColor=none;align=left;verticalAlign=middle;whiteSpace=wrap;rounded=0;fontStyle=1;fontFamily=Courier New;" vertex="1" parent="1">
          <mxGeometry x="50" y="120" width="80" height="40" as="geometry" />
        </mxCell>
        <mxCell id="AWAYhMum-Byg9k5m1UXS-11" value="" style="rounded=0;whiteSpace=wrap;html=1;" vertex="1" parent="1">
          <mxGeometry y="120" width="40" height="40" as="geometry" />
        </mxCell>
        <mxCell id="AWAYhMum-Byg9k5m1UXS-12" value="..." style="text;html=1;strokeColor=none;fillColor=none;align=left;verticalAlign=middle;whiteSpace=wrap;rounded=0;fontStyle=1;fontFamily=Courier New;" vertex="1" parent="1">
          <mxGeometry x="50" y="80" width="80" height="40" as="geometry" />
        </mxCell>
        <mxCell id="AWAYhMum-Byg9k5m1UXS-13" value="" style="rounded=0;whiteSpace=wrap;html=1;" vertex="1" parent="1">
          <mxGeometry y="80" width="40" height="40" as="geometry" />
        </mxCell>
        <mxCell id="AWAYhMum-Byg9k5m1UXS-14" value="" style="rounded=0;whiteSpace=wrap;html=1;" vertex="1" parent="1">
          <mxGeometry y="320" width="40" height="40" as="geometry" />
        </mxCell>
        <mxCell id="AWAYhMum-Byg9k5m1UXS-15" value="BYTECODE_NS_UNINSTALL" style="text;html=1;strokeColor=none;fillColor=none;align=left;verticalAlign=middle;whiteSpace=wrap;rounded=0;fontStyle=1;fontFamily=Courier New;" vertex="1" parent="1">
          <mxGeometry x="50" y="320" width="190" height="40" as="geometry" />
        </mxCell>
        <mxCell id="AWAYhMum-Byg9k5m1UXS-16" value="" style="rounded=0;whiteSpace=wrap;html=1;" vertex="1" parent="1">
          <mxGeometry y="360" width="40" height="40" as="geometry" />
        </mxCell>
        <mxCell id="AWAYhMum-Byg9k5m1UXS-17" value="BYTECODE_APPLY" style="text;html=1;strokeColor=none;fillColor=none;align=left;verticalAlign=middle;whiteSpace=wrap;rounded=0;fontStyle=1;fontFamily=Courier New;" vertex="1" parent="1">
          <mxGeometry x="50" y="360" width="130" height="40" as="geometry" />
        </mxCell>
        <mxCell id="AWAYhMum-Byg9k5m1UXS-18" value="1" style="ellipse;whiteSpace=wrap;html=1;aspect=fixed;" vertex="1" parent="1">
          <mxGeometry x="-40" y="80" width="40" height="40" as="geometry" />
        </mxCell>
        <mxCell id="AWAYhMum-Byg9k5m1UXS-19" value="2" style="ellipse;whiteSpace=wrap;html=1;aspect=fixed;" vertex="1" parent="1">
          <mxGeometry x="-40" y="120" width="40" height="40" as="geometry" />
        </mxCell>
        <mxCell id="AWAYhMum-Byg9k5m1UXS-20" value="3" style="ellipse;whiteSpace=wrap;html=1;aspect=fixed;" vertex="1" parent="1">
          <mxGeometry x="-40" y="160" width="40" height="40" as="geometry" />
        </mxCell>
        <mxCell id="AWAYhMum-Byg9k5m1UXS-21" value="4" style="ellipse;whiteSpace=wrap;html=1;aspect=fixed;" vertex="1" parent="1">
          <mxGeometry x="-40" y="200" width="40" height="40" as="geometry" />
        </mxCell>
        <mxCell id="AWAYhMum-Byg9k5m1UXS-22" value="5" style="ellipse;whiteSpace=wrap;html=1;aspect=fixed;" vertex="1" parent="1">
          <mxGeometry x="-40" y="240" width="40" height="40" as="geometry" />
        </mxCell>
        <mxCell id="AWAYhMum-Byg9k5m1UXS-23" value="6" style="ellipse;whiteSpace=wrap;html=1;aspect=fixed;" vertex="1" parent="1">
          <mxGeometry x="-40" y="280" width="40" height="40" as="geometry" />
        </mxCell>
        <mxCell id="AWAYhMum-Byg9k5m1UXS-24" value="7" style="ellipse;whiteSpace=wrap;html=1;aspect=fixed;" vertex="1" parent="1">
          <mxGeometry x="-40" y="320" width="40" height="40" as="geometry" />
        </mxCell>
        <mxCell id="AWAYhMum-Byg9k5m1UXS-25" value="8" style="ellipse;whiteSpace=wrap;html=1;aspect=fixed;" vertex="1" parent="1">
          <mxGeometry x="-40" y="360" width="40" height="40" as="geometry" />
        </mxCell>
        <mxCell id="AWAYhMum-Byg9k5m1UXS-28" value="1" style="ellipse;whiteSpace=wrap;html=1;aspect=fixed;" vertex="1" parent="1">
          <mxGeometry x="320" y="80" width="40" height="40" as="geometry" />
        </mxCell>
        <mxCell id="AWAYhMum-Byg9k5m1UXS-29" value="2" style="ellipse;whiteSpace=wrap;html=1;aspect=fixed;" vertex="1" parent="1">
          <mxGeometry x="360" y="80" width="40" height="40" as="geometry" />
        </mxCell>
        <mxCell id="AWAYhMum-Byg9k5m1UXS-30" value="" style="rounded=0;whiteSpace=wrap;html=1;fillColor=#e1d5e7;strokeColor=#9673a6;" vertex="1" parent="1">
          <mxGeometry x="370" y="120" width="20" height="40" as="geometry" />
        </mxCell>
        <mxCell id="AWAYhMum-Byg9k5m1UXS-31" value="" style="rounded=0;whiteSpace=wrap;html=1;fillColor=#e1d5e7;strokeColor=#9673a6;" vertex="1" parent="1">
          <mxGeometry x="370" y="160" width="20" height="40" as="geometry" />
        </mxCell>
        <mxCell id="AWAYhMum-Byg9k5m1UXS-32" value="" style="rounded=0;whiteSpace=wrap;html=1;fillColor=#e1d5e7;strokeColor=#9673a6;" vertex="1" parent="1">
          <mxGeometry x="370" y="200" width="20" height="40" as="geometry" />
        </mxCell>
        <mxCell id="AWAYhMum-Byg9k5m1UXS-33" value="" style="rounded=0;whiteSpace=wrap;html=1;fillColor=#f8cecc;strokeColor=#b85450;" vertex="1" parent="1">
          <mxGeometry x="370" y="240" width="20" height="40" as="geometry" />
        </mxCell>
        <mxCell id="AWAYhMum-Byg9k5m1UXS-34" value="" style="rounded=0;whiteSpace=wrap;html=1;fillColor=#f8cecc;strokeColor=#b85450;" vertex="1" parent="1">
          <mxGeometry x="370" y="280" width="20" height="40" as="geometry" />
        </mxCell>
        <mxCell id="AWAYhMum-Byg9k5m1UXS-35" value="" style="rounded=0;whiteSpace=wrap;html=1;" vertex="1" parent="1">
          <mxGeometry x="370" y="320" width="20" height="40" as="geometry" />
        </mxCell>
        <mxCell id="AWAYhMum-Byg9k5m1UXS-36" value="" style="rounded=0;whiteSpace=wrap;html=1;" vertex="1" parent="1">
          <mxGeometry x="370" y="360" width="20" height="40" as="geometry" />
        </mxCell>
        <mxCell id="AWAYhMum-Byg9k5m1UXS-37" value="3" style="ellipse;whiteSpace=wrap;html=1;aspect=fixed;" vertex="1" parent="1">
          <mxGeometry x="400" y="80" width="40" height="40" as="geometry" />
        </mxCell>
        <mxCell id="AWAYhMum-Byg9k5m1UXS-38" value="4" style="ellipse;whiteSpace=wrap;html=1;aspect=fixed;" vertex="1" parent="1">
          <mxGeometry x="440" y="80" width="40" height="40" as="geometry" />
        </mxCell>
        <mxCell id="AWAYhMum-Byg9k5m1UXS-39" value="5" style="ellipse;whiteSpace=wrap;html=1;aspect=fixed;" vertex="1" parent="1">
          <mxGeometry x="480" y="80" width="40" height="40" as="geometry" />
        </mxCell>
        <mxCell id="AWAYhMum-Byg9k5m1UXS-40" value="6" style="ellipse;whiteSpace=wrap;html=1;aspect=fixed;" vertex="1" parent="1">
          <mxGeometry x="520" y="80" width="40" height="40" as="geometry" />
        </mxCell>
        <mxCell id="AWAYhMum-Byg9k5m1UXS-41" value="7" style="ellipse;whiteSpace=wrap;html=1;aspect=fixed;" vertex="1" parent="1">
          <mxGeometry x="560" y="80" width="40" height="40" as="geometry" />
        </mxCell>
        <mxCell id="AWAYhMum-Byg9k5m1UXS-42" value="8" style="ellipse;whiteSpace=wrap;html=1;aspect=fixed;" vertex="1" parent="1">
          <mxGeometry x="600" y="80" width="40" height="40" as="geometry" />
        </mxCell>
        <mxCell id="AWAYhMum-Byg9k5m1UXS-43" value="" style="rounded=0;whiteSpace=wrap;html=1;fillColor=#e1d5e7;strokeColor=#9673a6;" vertex="1" parent="1">
          <mxGeometry x="410" y="120" width="20" height="40" as="geometry" />
        </mxCell>
        <mxCell id="AWAYhMum-Byg9k5m1UXS-44" value="" style="rounded=0;whiteSpace=wrap;html=1;fillColor=#e1d5e7;strokeColor=#9673a6;" vertex="1" parent="1">
          <mxGeometry x="410" y="160" width="20" height="40" as="geometry" />
        </mxCell>
        <mxCell id="AWAYhMum-Byg9k5m1UXS-45" value="" style="rounded=0;whiteSpace=wrap;html=1;fillColor=#e1d5e7;strokeColor=#9673a6;" vertex="1" parent="1">
          <mxGeometry x="410" y="200" width="20" height="40" as="geometry" />
        </mxCell>
        <mxCell id="AWAYhMum-Byg9k5m1UXS-46" value="" style="rounded=0;whiteSpace=wrap;html=1;fillColor=#f8cecc;strokeColor=#b85450;" vertex="1" parent="1">
          <mxGeometry x="410" y="240" width="20" height="40" as="geometry" />
        </mxCell>
        <mxCell id="AWAYhMum-Byg9k5m1UXS-47" value="" style="rounded=0;whiteSpace=wrap;html=1;fillColor=#f8cecc;strokeColor=#b85450;" vertex="1" parent="1">
          <mxGeometry x="410" y="280" width="20" height="40" as="geometry" />
        </mxCell>
        <mxCell id="AWAYhMum-Byg9k5m1UXS-48" value="" style="rounded=0;whiteSpace=wrap;html=1;" vertex="1" parent="1">
          <mxGeometry x="410" y="320" width="20" height="40" as="geometry" />
        </mxCell>
        <mxCell id="AWAYhMum-Byg9k5m1UXS-49" value="" style="rounded=0;whiteSpace=wrap;html=1;" vertex="1" parent="1">
          <mxGeometry x="410" y="360" width="20" height="40" as="geometry" />
        </mxCell>
        <mxCell id="AWAYhMum-Byg9k5m1UXS-50" value="" style="rounded=0;whiteSpace=wrap;html=1;" vertex="1" parent="1">
          <mxGeometry x="410" y="400" width="20" height="40" as="geometry" />
        </mxCell>
        <mxCell id="AWAYhMum-Byg9k5m1UXS-51" value="" style="rounded=0;whiteSpace=wrap;html=1;fillColor=#e1d5e7;strokeColor=#9673a6;" vertex="1" parent="1">
          <mxGeometry x="450" y="120" width="20" height="40" as="geometry" />
        </mxCell>
        <mxCell id="AWAYhMum-Byg9k5m1UXS-52" value="" style="rounded=0;whiteSpace=wrap;html=1;fillColor=#e1d5e7;strokeColor=#9673a6;" vertex="1" parent="1">
          <mxGeometry x="450" y="160" width="20" height="40" as="geometry" />
        </mxCell>
        <mxCell id="AWAYhMum-Byg9k5m1UXS-53" value="" style="rounded=0;whiteSpace=wrap;html=1;fillColor=#e1d5e7;strokeColor=#9673a6;" vertex="1" parent="1">
          <mxGeometry x="450" y="200" width="20" height="40" as="geometry" />
        </mxCell>
        <mxCell id="AWAYhMum-Byg9k5m1UXS-54" value="" style="rounded=0;whiteSpace=wrap;html=1;fillColor=#f8cecc;strokeColor=#b85450;" vertex="1" parent="1">
          <mxGeometry x="450" y="240" width="20" height="40" as="geometry" />
        </mxCell>
        <mxCell id="AWAYhMum-Byg9k5m1UXS-55" value="" style="rounded=0;whiteSpace=wrap;html=1;fillColor=#f8cecc;strokeColor=#b85450;" vertex="1" parent="1">
          <mxGeometry x="450" y="280" width="20" height="40" as="geometry" />
        </mxCell>
        <mxCell id="AWAYhMum-Byg9k5m1UXS-56" value="" style="rounded=0;whiteSpace=wrap;html=1;" vertex="1" parent="1">
          <mxGeometry x="450" y="320" width="20" height="40" as="geometry" />
        </mxCell>
        <mxCell id="AWAYhMum-Byg9k5m1UXS-57" value="" style="rounded=0;whiteSpace=wrap;html=1;" vertex="1" parent="1">
          <mxGeometry x="450" y="360" width="20" height="40" as="geometry" />
        </mxCell>
        <mxCell id="AWAYhMum-Byg9k5m1UXS-58" value="" style="rounded=0;whiteSpace=wrap;html=1;" vertex="1" parent="1">
          <mxGeometry x="450" y="400" width="20" height="40" as="geometry" />
        </mxCell>
        <mxCell id="AWAYhMum-Byg9k5m1UXS-124" style="edgeStyle=orthogonalEdgeStyle;curved=1;rounded=0;orthogonalLoop=1;jettySize=auto;html=1;entryX=1;entryY=0.5;entryDx=0;entryDy=0;" edge="1" parent="1" source="AWAYhMum-Byg9k5m1UXS-59" target="AWAYhMum-Byg9k5m1UXS-74">
          <mxGeometry relative="1" as="geometry" />
        </mxCell>
        <mxCell id="AWAYhMum-Byg9k5m1UXS-59" value="" style="rounded=0;whiteSpace=wrap;html=1;fillColor=#f8cecc;strokeColor=#b85450;" vertex="1" parent="1">
          <mxGeometry x="450" y="440" width="20" height="40" as="geometry" />
        </mxCell>
        <mxCell id="AWAYhMum-Byg9k5m1UXS-60" value="" style="rounded=0;whiteSpace=wrap;html=1;fillColor=#e1d5e7;strokeColor=#9673a6;" vertex="1" parent="1">
          <mxGeometry x="490" y="120" width="20" height="40" as="geometry" />
        </mxCell>
        <mxCell id="AWAYhMum-Byg9k5m1UXS-61" value="" style="rounded=0;whiteSpace=wrap;html=1;fillColor=#e1d5e7;strokeColor=#9673a6;" vertex="1" parent="1">
          <mxGeometry x="490" y="160" width="20" height="40" as="geometry" />
        </mxCell>
        <mxCell id="AWAYhMum-Byg9k5m1UXS-62" value="" style="rounded=0;whiteSpace=wrap;html=1;fillColor=#e1d5e7;strokeColor=#9673a6;" vertex="1" parent="1">
          <mxGeometry x="490" y="200" width="20" height="40" as="geometry" />
        </mxCell>
        <mxCell id="AWAYhMum-Byg9k5m1UXS-63" value="" style="rounded=0;whiteSpace=wrap;html=1;fillColor=#f8cecc;strokeColor=#b85450;" vertex="1" parent="1">
          <mxGeometry x="490" y="240" width="20" height="40" as="geometry" />
        </mxCell>
        <mxCell id="AWAYhMum-Byg9k5m1UXS-64" value="" style="rounded=0;whiteSpace=wrap;html=1;fillColor=#f8cecc;strokeColor=#b85450;" vertex="1" parent="1">
          <mxGeometry x="490" y="280" width="20" height="40" as="geometry" />
        </mxCell>
        <mxCell id="AWAYhMum-Byg9k5m1UXS-65" value="" style="rounded=0;whiteSpace=wrap;html=1;fillColor=#d5e8d4;strokeColor=#82b366;" vertex="1" parent="1">
          <mxGeometry x="490" y="320" width="20" height="40" as="geometry" />
        </mxCell>
        <mxCell id="AWAYhMum-Byg9k5m1UXS-66" value="" style="rounded=0;whiteSpace=wrap;html=1;fillColor=#e1d5e7;strokeColor=#9673a6;" vertex="1" parent="1">
          <mxGeometry x="490" y="520" width="20" height="40" as="geometry" />
        </mxCell>
        <mxCell id="AWAYhMum-Byg9k5m1UXS-67" value="" style="rounded=0;whiteSpace=wrap;html=1;fillColor=#e1d5e7;strokeColor=#9673a6;" vertex="1" parent="1">
          <mxGeometry x="490" y="560" width="20" height="40" as="geometry" />
        </mxCell>
        <mxCell id="AWAYhMum-Byg9k5m1UXS-68" value="" style="rounded=0;whiteSpace=wrap;html=1;fillColor=#e1d5e7;strokeColor=#9673a6;" vertex="1" parent="1">
          <mxGeometry x="490" y="600" width="20" height="40" as="geometry" />
        </mxCell>
        <mxCell id="AWAYhMum-Byg9k5m1UXS-69" value="" style="rounded=0;whiteSpace=wrap;html=1;fillColor=#f8cecc;strokeColor=#b85450;" vertex="1" parent="1">
          <mxGeometry x="490" y="640" width="20" height="40" as="geometry" />
        </mxCell>
        <mxCell id="AWAYhMum-Byg9k5m1UXS-70" value="" style="rounded=0;whiteSpace=wrap;html=1;fillColor=#f8cecc;strokeColor=#b85450;" vertex="1" parent="1">
          <mxGeometry x="490" y="680" width="20" height="40" as="geometry" />
        </mxCell>
        <mxCell id="AWAYhMum-Byg9k5m1UXS-71" value="" style="rounded=0;whiteSpace=wrap;html=1;" vertex="1" parent="1">
          <mxGeometry x="490" y="720" width="20" height="40" as="geometry" />
        </mxCell>
        <mxCell id="AWAYhMum-Byg9k5m1UXS-74" value="" style="rounded=0;whiteSpace=wrap;html=1;fillColor=#e1d5e7;strokeColor=#9673a6;" vertex="1" parent="1">
          <mxGeometry x="240" y="440" width="20" height="40" as="geometry" />
        </mxCell>
        <mxCell id="AWAYhMum-Byg9k5m1UXS-75" value="" style="rounded=0;whiteSpace=wrap;html=1;fillColor=#e1d5e7;strokeColor=#9673a6;" vertex="1" parent="1">
          <mxGeometry x="240" y="480" width="20" height="40" as="geometry" />
        </mxCell>
        <mxCell id="AWAYhMum-Byg9k5m1UXS-76" value="" style="rounded=0;whiteSpace=wrap;html=1;fillColor=#e1d5e7;strokeColor=#9673a6;" vertex="1" parent="1">
          <mxGeometry x="240" y="520" width="20" height="40" as="geometry" />
        </mxCell>
        <mxCell id="AWAYhMum-Byg9k5m1UXS-77" value="" style="rounded=0;whiteSpace=wrap;html=1;fillColor=#f8cecc;strokeColor=#b85450;" vertex="1" parent="1">
          <mxGeometry x="240" y="560" width="20" height="40" as="geometry" />
        </mxCell>
        <mxCell id="AWAYhMum-Byg9k5m1UXS-78" value="" style="rounded=0;whiteSpace=wrap;html=1;fillColor=#f8cecc;strokeColor=#b85450;" vertex="1" parent="1">
          <mxGeometry x="240" y="600" width="20" height="40" as="geometry" />
        </mxCell>
        <mxCell id="AWAYhMum-Byg9k5m1UXS-79" value="" style="rounded=0;whiteSpace=wrap;html=1;fillColor=#d5e8d4;strokeColor=#82b366;" vertex="1" parent="1">
          <mxGeometry x="240" y="640" width="20" height="40" as="geometry" />
        </mxCell>
        <mxCell id="AWAYhMum-Byg9k5m1UXS-81" value="" style="rounded=0;whiteSpace=wrap;html=1;fillColor=#e1d5e7;strokeColor=#9673a6;" vertex="1" parent="1">
          <mxGeometry x="530" y="120" width="20" height="40" as="geometry" />
        </mxCell>
        <mxCell id="AWAYhMum-Byg9k5m1UXS-82" value="" style="rounded=0;whiteSpace=wrap;html=1;fillColor=#e1d5e7;strokeColor=#9673a6;" vertex="1" parent="1">
          <mxGeometry x="530" y="160" width="20" height="40" as="geometry" />
        </mxCell>
        <mxCell id="AWAYhMum-Byg9k5m1UXS-83" value="" style="rounded=0;whiteSpace=wrap;html=1;fillColor=#e1d5e7;strokeColor=#9673a6;" vertex="1" parent="1">
          <mxGeometry x="530" y="200" width="20" height="40" as="geometry" />
        </mxCell>
        <mxCell id="AWAYhMum-Byg9k5m1UXS-84" value="" style="rounded=0;whiteSpace=wrap;html=1;fillColor=#f8cecc;strokeColor=#b85450;" vertex="1" parent="1">
          <mxGeometry x="530" y="240" width="20" height="40" as="geometry" />
        </mxCell>
        <mxCell id="AWAYhMum-Byg9k5m1UXS-85" value="" style="rounded=0;whiteSpace=wrap;html=1;fillColor=#f8cecc;strokeColor=#b85450;" vertex="1" parent="1">
          <mxGeometry x="530" y="280" width="20" height="40" as="geometry" />
        </mxCell>
        <mxCell id="AWAYhMum-Byg9k5m1UXS-86" value="" style="rounded=0;whiteSpace=wrap;html=1;fillColor=#d5e8d4;strokeColor=#82b366;" vertex="1" parent="1">
          <mxGeometry x="530" y="320" width="20" height="40" as="geometry" />
        </mxCell>
        <mxCell id="AWAYhMum-Byg9k5m1UXS-117" style="edgeStyle=orthogonalEdgeStyle;curved=1;rounded=0;orthogonalLoop=1;jettySize=auto;html=1;entryX=0;entryY=0.5;entryDx=0;entryDy=0;" edge="1" parent="1" source="AWAYhMum-Byg9k5m1UXS-87" target="AWAYhMum-Byg9k5m1UXS-104">
          <mxGeometry relative="1" as="geometry">
            <Array as="points">
              <mxPoint x="540" y="460" />
            </Array>
          </mxGeometry>
        </mxCell>
        <mxCell id="AWAYhMum-Byg9k5m1UXS-87" value="" style="rounded=0;whiteSpace=wrap;html=1;fillColor=#d5e8d4;strokeColor=#82b366;" vertex="1" parent="1">
          <mxGeometry x="530" y="360" width="20" height="40" as="geometry" />
        </mxCell>
        <mxCell id="AWAYhMum-Byg9k5m1UXS-94" value="" style="rounded=0;whiteSpace=wrap;html=1;" vertex="1" parent="1">
          <mxGeometry x="490" y="760" width="20" height="40" as="geometry" />
        </mxCell>
        <mxCell id="AWAYhMum-Byg9k5m1UXS-95" value="" style="rounded=0;whiteSpace=wrap;html=1;" vertex="1" parent="1">
          <mxGeometry x="490" y="800" width="20" height="40" as="geometry" />
        </mxCell>
        <mxCell id="AWAYhMum-Byg9k5m1UXS-96" value="" style="rounded=0;whiteSpace=wrap;html=1;fillColor=#e1d5e7;strokeColor=#9673a6;" vertex="1" parent="1">
          <mxGeometry x="570" y="120" width="20" height="40" as="geometry" />
        </mxCell>
        <mxCell id="AWAYhMum-Byg9k5m1UXS-97" value="" style="rounded=0;whiteSpace=wrap;html=1;fillColor=#e1d5e7;strokeColor=#9673a6;" vertex="1" parent="1">
          <mxGeometry x="570" y="160" width="20" height="40" as="geometry" />
        </mxCell>
        <mxCell id="AWAYhMum-Byg9k5m1UXS-98" value="" style="rounded=0;whiteSpace=wrap;html=1;fillColor=#e1d5e7;strokeColor=#9673a6;" vertex="1" parent="1">
          <mxGeometry x="570" y="200" width="20" height="40" as="geometry" />
        </mxCell>
        <mxCell id="AWAYhMum-Byg9k5m1UXS-99" value="" style="rounded=0;whiteSpace=wrap;html=1;fillColor=#f8cecc;strokeColor=#b85450;" vertex="1" parent="1">
          <mxGeometry x="570" y="240" width="20" height="40" as="geometry" />
        </mxCell>
        <mxCell id="AWAYhMum-Byg9k5m1UXS-100" value="" style="rounded=0;whiteSpace=wrap;html=1;fillColor=#f8cecc;strokeColor=#b85450;" vertex="1" parent="1">
          <mxGeometry x="570" y="280" width="20" height="40" as="geometry" />
        </mxCell>
        <mxCell id="AWAYhMum-Byg9k5m1UXS-101" value="" style="rounded=0;whiteSpace=wrap;html=1;" vertex="1" parent="1">
          <mxGeometry x="570" y="320" width="20" height="40" as="geometry" />
        </mxCell>
        <mxCell id="AWAYhMum-Byg9k5m1UXS-102" value="" style="rounded=0;whiteSpace=wrap;html=1;" vertex="1" parent="1">
          <mxGeometry x="570" y="360" width="20" height="40" as="geometry" />
        </mxCell>
        <mxCell id="AWAYhMum-Byg9k5m1UXS-103" value="" style="rounded=0;whiteSpace=wrap;html=1;" vertex="1" parent="1">
          <mxGeometry x="570" y="400" width="20" height="40" as="geometry" />
        </mxCell>
        <mxCell id="AWAYhMum-Byg9k5m1UXS-104" value="" style="rounded=0;whiteSpace=wrap;html=1;fillColor=#d5e8d4;strokeColor=#82b366;" vertex="1" parent="1">
          <mxGeometry x="570" y="440" width="20" height="40" as="geometry" />
        </mxCell>
        <mxCell id="AWAYhMum-Byg9k5m1UXS-105" value="" style="rounded=0;whiteSpace=wrap;html=1;fillColor=#e1d5e7;strokeColor=#9673a6;" vertex="1" parent="1">
          <mxGeometry x="610" y="120" width="20" height="40" as="geometry" />
        </mxCell>
        <mxCell id="AWAYhMum-Byg9k5m1UXS-106" value="" style="rounded=0;whiteSpace=wrap;html=1;fillColor=#e1d5e7;strokeColor=#9673a6;" vertex="1" parent="1">
          <mxGeometry x="610" y="160" width="20" height="40" as="geometry" />
        </mxCell>
        <mxCell id="AWAYhMum-Byg9k5m1UXS-107" value="" style="rounded=0;whiteSpace=wrap;html=1;fillColor=#e1d5e7;strokeColor=#9673a6;" vertex="1" parent="1">
          <mxGeometry x="610" y="200" width="20" height="40" as="geometry" />
        </mxCell>
        <mxCell id="AWAYhMum-Byg9k5m1UXS-108" value="" style="rounded=0;whiteSpace=wrap;html=1;fillColor=#f8cecc;strokeColor=#b85450;" vertex="1" parent="1">
          <mxGeometry x="610" y="240" width="20" height="40" as="geometry" />
        </mxCell>
        <mxCell id="AWAYhMum-Byg9k5m1UXS-109" value="" style="rounded=0;whiteSpace=wrap;html=1;fillColor=#f8cecc;strokeColor=#b85450;" vertex="1" parent="1">
          <mxGeometry x="610" y="280" width="20" height="40" as="geometry" />
        </mxCell>
        <mxCell id="AWAYhMum-Byg9k5m1UXS-110" value="" style="rounded=0;whiteSpace=wrap;html=1;" vertex="1" parent="1">
          <mxGeometry x="610" y="320" width="20" height="40" as="geometry" />
        </mxCell>
        <mxCell id="AWAYhMum-Byg9k5m1UXS-115" style="edgeStyle=orthogonalEdgeStyle;curved=1;rounded=0;orthogonalLoop=1;jettySize=auto;html=1;entryX=0.5;entryY=0;entryDx=0;entryDy=0;" edge="1" parent="1" source="AWAYhMum-Byg9k5m1UXS-114" target="AWAYhMum-Byg9k5m1UXS-66">
          <mxGeometry relative="1" as="geometry" />
        </mxCell>
        <mxCell id="AWAYhMum-Byg9k5m1UXS-114" value="K" style="ellipse;whiteSpace=wrap;html=1;aspect=fixed;" vertex="1" parent="1">
          <mxGeometry x="480" y="370" width="40" height="40" as="geometry" />
        </mxCell>
        <mxCell id="AWAYhMum-Byg9k5m1UXS-118" value="BYTECODE_LVAR" style="text;html=1;strokeColor=none;fillColor=none;align=left;verticalAlign=middle;whiteSpace=wrap;rounded=0;fontStyle=1;fontFamily=Courier New;rotation=310;" vertex="1" parent="1">
          <mxGeometry x="450" y="10" width="140" height="40" as="geometry" />
        </mxCell>
        <mxCell id="AWAYhMum-Byg9k5m1UXS-119" value="BYTECODE_NS_INSTALL" style="text;html=1;strokeColor=none;fillColor=none;align=left;verticalAlign=middle;whiteSpace=wrap;rounded=0;fontStyle=1;fontFamily=Courier New;rotation=310;" vertex="1" parent="1">
          <mxGeometry x="490" width="150" height="40" as="geometry" />
        </mxCell>
        <mxCell id="AWAYhMum-Byg9k5m1UXS-120" value="fn-expr" style="text;html=1;strokeColor=none;fillColor=none;align=left;verticalAlign=middle;whiteSpace=wrap;rounded=0;fontStyle=1;fontFamily=Courier New;rotation=310;" vertex="1" parent="1">
          <mxGeometry x="540" y="30" width="80" height="40" as="geometry" />
        </mxCell>
        <mxCell id="AWAYhMum-Byg9k5m1UXS-121" value="BYTECODE_NS_UNINSTALL" style="text;html=1;strokeColor=none;fillColor=none;align=left;verticalAlign=middle;whiteSpace=wrap;rounded=0;fontStyle=1;fontFamily=Courier New;rotation=310;" vertex="1" parent="1">
          <mxGeometry x="560" y="-10" width="190" height="40" as="geometry" />
        </mxCell>
        <mxCell id="AWAYhMum-Byg9k5m1UXS-122" value="BYTECODE_APPLY" style="text;html=1;strokeColor=none;fillColor=none;align=left;verticalAlign=middle;whiteSpace=wrap;rounded=0;fontStyle=1;fontFamily=Courier New;rotation=310;" vertex="1" parent="1">
          <mxGeometry x="610" y="10" width="130" height="40" as="geometry" />
        </mxCell>
        <mxCell id="AWAYhMum-Byg9k5m1UXS-123" value="args" style="text;html=1;strokeColor=none;fillColor=none;align=left;verticalAlign=middle;whiteSpace=wrap;rounded=0;fontStyle=1;fontFamily=Courier New;rotation=310;" vertex="1" parent="1">
          <mxGeometry x="380" y="30" width="80" height="40" as="geometry" />
        </mxCell>
        <mxCell id="AWAYhMum-Byg9k5m1UXS-116" style="edgeStyle=orthogonalEdgeStyle;curved=1;rounded=0;orthogonalLoop=1;jettySize=auto;html=1;entryX=0.5;entryY=0;entryDx=0;entryDy=0;" edge="1" parent="1" source="AWAYhMum-Byg9k5m1UXS-95" target="AWAYhMum-Byg9k5m1UXS-104">
          <mxGeometry relative="1" as="geometry">
            <Array as="points">
              <mxPoint x="580" y="820" />
            </Array>
          </mxGeometry>
        </mxCell>
      </root>
    </mxGraphModel>
  </diagram>
</mxfile>
